<?xml version="1.0" encoding="utf-8"?>
<!-- Generated by IcoMoon.io -->
<!DOCTYPE svg PUBLIC "-//W3C//DTD SVG 1.1//EN" "http://www.w3.org/Graphics/SVG/1.1/DTD/svg11.dtd">
<svg version="1.1" xmlns="http://www.w3.org/2000/svg" xmlns:xlink="http://www.w3.org/1999/xlink" width="36" height="32" viewBox="0 0 36 32">
<path d="M7.232 12.64c-0.64-1.408-0.96-2.688-0.96-3.872 0-1.344 0.416-2.592 1.184-3.776 0.8-1.152 1.824-2.080 3.040-2.784 1.248-0.704 2.528-1.056 3.84-1.056 1.472 0 2.688 0.384 3.68 1.216 0.992 0.8 1.504 1.792 1.504 2.912 0 0.864-0.256 1.664-0.736 2.368-0.48 0.736-0.96 1.088-1.504 1.088-0.256 0-0.384-0.128-0.384-0.384 0-0.096 0.096-0.32 0.224-0.672 0.224-0.544 0.352-1.12 0.352-1.696 0-0.832-0.352-1.536-1.056-2.048-0.704-0.544-1.536-0.8-2.528-0.8-1.568 0-3.040 0.64-4.416 1.92-1.376 1.312-2.048 2.816-2.048 4.48 0 0.768 0.096 1.376 0.288 1.92 0.224 0.512 0.384 0.832 0.544 0.992s0.416 0.256 0.704 0.256c1.952 0 2.944 0.544 2.944 1.696 0 0.288-0.096 0.544-0.32 0.8-0.192 0.256-0.512 0.384-0.896 0.384-0.448 0-0.992-0.288-1.696-0.864-0.704-0.64-1.408-0.96-2.112-0.96-0.896 0-1.76 0.448-2.56 1.344s-1.184 1.952-1.184 3.168c0 2.368 1.152 4.608 3.52 6.72s5.28 3.168 8.8 3.168c3.328 0 6.176-0.832 8.544-2.496 2.368-1.632 3.552-3.616 3.552-5.92 0-1.536-0.608-2.88-1.76-4s-2.752-1.696-4.736-1.696c-1.6 0-3.040 0.448-4.288 1.312-1.248 0.896-1.888 1.984-1.888 3.328 0 0.768 0.224 1.44 0.672 1.952 0.48 0.512 0.928 0.768 1.408 0.768 0.576 0 0.832-0.288 0.832-0.896v-0.256c-0.032-0.192-0.032-0.32-0.032-0.384 0-0.64 0.16-1.152 0.512-1.536 0.352-0.416 0.768-0.608 1.312-0.608 0.48 0 0.928 0.16 1.28 0.512 0.384 0.352 0.576 0.832 0.576 1.472 0 0.896-0.32 1.632-0.928 2.208-0.64 0.608-1.408 0.896-2.4 0.896-1.152 0-2.144-0.384-2.976-1.216-0.832-0.8-1.248-1.824-1.248-3.008 0-1.76 0.736-3.328 2.208-4.768s4.128-2.144 7.968-2.144c3.456 0 5.952-0.48 7.52-1.44 1.568-0.928 2.336-2.368 2.336-4.288 0-1.12-0.352-2.080-1.024-2.784-0.704-0.736-1.6-1.12-2.656-1.12-0.512 0-0.928 0.096-1.184 0.224-0.256 0.16-0.384 0.384-0.384 0.704 0 0.192 0.128 0.48 0.384 0.864 0.32 0.448 0.48 0.896 0.48 1.344 0 0.544-0.192 0.992-0.608 1.376-0.384 0.416-0.896 0.608-1.504 0.608-0.704 0-1.248-0.224-1.6-0.672-0.384-0.448-0.576-0.992-0.576-1.6 0-0.96 0.48-1.824 1.44-2.592 0.928-0.768 2.144-1.152 3.616-1.152 1.504 0 2.752 0.544 3.744 1.632 0.992 1.12 1.504 2.432 1.504 3.968 0 1.472-0.416 2.816-1.28 4.032-0.864 1.184-1.952 2.048-3.264 2.528-1.312 0.512-3.168 0.8-5.536 0.896 2.272 1.6 3.424 3.648 3.424 6.176 0 1.888-0.704 3.712-2.112 5.472-1.376 1.76-3.072 3.072-5.056 3.936-1.984 0.832-4.384 1.28-7.264 1.28-2.304 0-4.16-0.256-5.6-0.768s-2.816-1.248-4.096-2.208c-1.312-0.96-2.336-2.144-3.072-3.552-0.768-1.408-1.12-2.912-1.12-4.512 0-1.952 0.544-3.616 1.664-4.928 1.12-1.344 2.784-2.176 4.992-2.464v0z" fill="#444444"></path>
</svg>
