<?xml version="1.0" encoding="utf-8"?>
<!-- Generated by IcoMoon.io -->
<!DOCTYPE svg PUBLIC "-//W3C//DTD SVG 1.1//EN" "http://www.w3.org/Graphics/SVG/1.1/DTD/svg11.dtd">
<svg version="1.1" xmlns="http://www.w3.org/2000/svg" xmlns:xlink="http://www.w3.org/1999/xlink" width="18" height="32" viewBox="0 0 18 32">
<path d="M5.152 26.272q0-0.704-0.512-1.216t-1.216-0.48-1.216 0.48-0.48 1.216 0.48 1.216 1.216 0.512 1.216-0.512 0.512-1.216zM5.152 5.728q0-0.736-0.512-1.216t-1.216-0.512-1.216 0.512-0.48 1.216 0.48 1.216 1.216 0.48 1.216-0.48 0.512-1.216zM16.576 8q0-0.704-0.512-1.216t-1.216-0.512-1.216 0.512-0.48 1.216 0.48 1.216 1.216 0.512 1.216-0.512 0.512-1.216zM18.272 8q0 0.928-0.448 1.728t-1.248 1.248q-0.032 5.12-4.032 7.392-1.216 0.672-3.648 1.44-2.272 0.704-3.008 1.248t-0.736 1.792v0.48q0.768 0.448 1.248 1.248t0.448 1.696q0 1.44-0.992 2.432t-2.432 1.024-2.432-1.024-0.992-2.432q0-0.928 0.48-1.696t1.248-1.248v-14.656q-0.8-0.448-1.248-1.248t-0.48-1.696q0-1.44 0.992-2.432t2.432-1.024 2.432 1.024 0.992 2.432q0 0.928-0.448 1.696t-1.248 1.248v8.896q0.96-0.48 2.752-1.024 0.96-0.32 1.568-0.544t1.248-0.544 1.056-0.704 0.704-0.928 0.512-1.216 0.16-1.632q-0.8-0.448-1.248-1.248t-0.48-1.728q0-1.44 0.992-2.432t2.432-0.992 2.432 0.992 0.992 2.432z" fill="#999"></path>
</svg>
