<?xml version="1.0" encoding="utf-8"?>
<!-- Generated by IcoMoon.io -->
<!DOCTYPE svg PUBLIC "-//W3C//DTD SVG 1.1//EN" "http://www.w3.org/Graphics/SVG/1.1/DTD/svg11.dtd">
<svg version="1.1" xmlns="http://www.w3.org/2000/svg" xmlns:xlink="http://www.w3.org/1999/xlink" width="27" height="32" viewBox="0 0 27 32">
<path d="M24.32 25.472v-11.584h-2.4q0.352 1.12 0.352 2.336 0 2.272-1.152 4.16t-3.104 3.008-4.288 1.12q-3.52 0-6.016-2.432t-2.496-5.856q0-1.216 0.352-2.336h-2.528v11.584q0 0.448 0.32 0.768t0.8 0.32h19.072q0.448 0 0.768-0.32t0.32-0.768zM19.264 15.936q0-2.208-1.632-3.776t-3.904-1.568-3.872 1.568-1.632 3.776 1.632 3.776 3.872 1.568q2.304 0 3.904-1.568t1.632-3.776zM24.32 9.504v-2.944q0-0.48-0.352-0.864t-0.864-0.352h-3.136q-0.512 0-0.864 0.352t-0.352 0.864v2.944q0 0.544 0.352 0.896t0.864 0.352h3.136q0.512 0 0.864-0.352t0.352-0.896zM27.424 5.792v20.416q0 1.44-1.024 2.464t-2.496 1.056h-20.384q-1.44 0-2.496-1.056t-1.024-2.464v-20.416q0-1.44 1.024-2.464t2.496-1.056h20.384q1.44 0 2.496 1.056t1.024 2.464z" fill="#444444"></path>
</svg>
