<?xml version="1.0" encoding="utf-8"?>
<!-- Generated by IcoMoon.io -->
<!DOCTYPE svg PUBLIC "-//W3C//DTD SVG 1.1//EN" "http://www.w3.org/Graphics/SVG/1.1/DTD/svg11.dtd">
<svg version="1.1" xmlns="http://www.w3.org/2000/svg" xmlns:xlink="http://www.w3.org/1999/xlink" width="29" height="32" viewBox="0 0 29 32">
<path d="M17.728 18.4c0 1.728-1.408 3.136-3.136 3.136s-3.136-1.408-3.136-3.136 1.44-3.104 3.136-3.104 3.136 1.408 3.136 3.104zM7.456 6.816h21.696v20.288h-29.152v-20.288h4.576v-1.92h2.88v1.92zM20 18.4c0-2.976-2.432-5.44-5.408-5.44s-5.44 2.464-5.44 5.44 2.464 5.44 5.44 5.44c2.976 0 5.408-2.432 5.408-5.44zM27.68 14.368v-6.080h-26.208v6.080h8c1.216-1.504 3.040-2.464 5.12-2.464 2.048 0 3.904 0.96 5.088 2.464h8z" fill="#444444"></path>
</svg>
