<?xml version="1.0" encoding="utf-8"?>
<!-- Generated by IcoMoon.io -->
<!DOCTYPE svg PUBLIC "-//W3C//DTD SVG 1.1//EN" "http://www.w3.org/Graphics/SVG/1.1/DTD/svg11.dtd">
<svg version="1.1" xmlns="http://www.w3.org/2000/svg" xmlns:xlink="http://www.w3.org/1999/xlink" width="29" height="32" viewBox="0 0 29 32">
<path d="M24.512 14.336q0.128 1.024 0.128 1.664 0 5.12-3.616 8.8t-8.736 3.68q-5.056 0-8.672-3.68t-3.616-8.8q0-5.184 3.584-8.832t8.704-3.648q1.664 0 2.88 0.32v7.104q-2.432-0.832-4.928 0.32-2.24 1.088-3.232 3.232t-0.16 4.128q0.832 1.92 3.040 2.528t4.448-0.48q1.664-0.832 2.784-2.56t1.12-3.904v-9.152q0.512 0.256 0.768 0.448 5.568 3.456 9.92 3.648 1.024 0.064 0.128 1.664-1.344 2.432-4.16 3.392z" fill="#444444"></path>
</svg>
