<?xml version="1.0" encoding="utf-8"?>
<!-- Generated by IcoMoon.io -->
<!DOCTYPE svg PUBLIC "-//W3C//DTD SVG 1.1//EN" "http://www.w3.org/Graphics/SVG/1.1/DTD/svg11.dtd">
<svg version="1.1" xmlns="http://www.w3.org/2000/svg" xmlns:xlink="http://www.w3.org/1999/xlink" width="32" height="32" viewBox="0 0 32 32">
<path d="M32 20q0 2.976-2.272 8.064-0.064 0.128-0.192 0.416t-0.224 0.544-0.256 0.384q-0.192 0.32-0.48 0.32t-0.416-0.192-0.16-0.448q0-0.16 0.032-0.48t0.064-0.416q0.096-1.216 0.096-2.208 0-1.792-0.32-3.232t-0.864-2.464-1.44-1.792-1.888-1.248-2.368-0.768-2.752-0.384-3.136-0.096h-4v4.576q0 0.448-0.32 0.8t-0.832 0.352-0.8-0.352l-9.12-9.152q-0.352-0.32-0.352-0.8t0.352-0.8l9.12-9.152q0.352-0.32 0.8-0.32t0.832 0.32 0.32 0.8v4.576h4q12.736 0 15.616 7.2 0.96 2.4 0.96 5.952z" fill="#DDD"></path>
</svg>
