<?xml version="1.0" encoding="utf-8"?>
<!-- Generated by IcoMoon.io -->
<!DOCTYPE svg PUBLIC "-//W3C//DTD SVG 1.1//EN" "http://www.w3.org/Graphics/SVG/1.1/DTD/svg11.dtd">
<svg version="1.1" xmlns="http://www.w3.org/2000/svg" xmlns:xlink="http://www.w3.org/1999/xlink" width="34" height="32" viewBox="0 0 34 32">
<path d="M22.848 26.848q0 0.256-0.16 0.416t-0.416 0.16h-17.12q-0.16 0-0.256-0.032t-0.16-0.128-0.096-0.128-0.064-0.224 0-0.192v-10.72h-3.424q-0.48 0-0.8-0.352t-0.352-0.8q0-0.416 0.256-0.736l5.728-6.848q0.352-0.384 0.864-0.384t0.896 0.384l5.696 6.848q0.288 0.32 0.288 0.736 0 0.48-0.352 0.8t-0.8 0.352h-3.424v6.848h10.272q0.288 0 0.448 0.192l2.848 3.456q0.128 0.192 0.128 0.352zM34.272 19.424q0 0.448-0.256 0.736l-5.728 6.848q-0.352 0.416-0.864 0.416t-0.864-0.416l-5.728-6.848q-0.256-0.288-0.256-0.736t0.32-0.8 0.832-0.352h3.424v-6.848h-10.304q-0.288 0-0.448-0.224l-2.848-3.424q-0.128-0.16-0.128-0.352 0-0.224 0.16-0.384t0.416-0.192h17.152q0.128 0 0.224 0.032t0.16 0.128 0.096 0.16 0.064 0.192 0.032 0.224v10.688h3.424q0.448 0 0.8 0.352t0.32 0.8z" fill="#DDD"></path>
</svg>
