<?xml version="1.0" encoding="utf-8"?>
<!-- Generated by IcoMoon.io -->
<!DOCTYPE svg PUBLIC "-//W3C//DTD SVG 1.1//EN" "http://www.w3.org/Graphics/SVG/1.1/DTD/svg11.dtd">
<svg version="1.1" xmlns="http://www.w3.org/2000/svg" xmlns:xlink="http://www.w3.org/1999/xlink" width="18" height="32" viewBox="0 0 18 32">
<path d="M16.864 23.744l1.408 4.224q-0.384 0.608-1.952 1.184t-3.168 0.576q-1.856 0.032-3.424-0.48t-2.528-1.312-1.696-1.888-0.992-2.144-0.288-2.112v-9.728h-3.008v-3.84q1.28-0.448 2.304-1.248t1.632-1.6 1.024-1.824 0.608-1.76 0.256-1.568q0.032-0.096 0.096-0.16t0.128-0.064h4.352v7.584h5.952v4.48h-5.952v9.248q0 0.544 0.096 1.024t0.416 0.928 0.896 0.736 1.44 0.256q1.408-0.032 2.4-0.512z" fill="#999"></path>
</svg>
