<?xml version="1.0" encoding="utf-8"?>
<!-- Generated by IcoMoon.io -->
<!DOCTYPE svg PUBLIC "-//W3C//DTD SVG 1.1//EN" "http://www.w3.org/Graphics/SVG/1.1/DTD/svg11.dtd">
<svg version="1.1" xmlns="http://www.w3.org/2000/svg" xmlns:xlink="http://www.w3.org/1999/xlink" width="28" height="32" viewBox="0 0 28 32">
<path d="M8.32 23.52q0 0.32-0.224 0.544t-0.576 0.256-0.576-0.256-0.256-0.544v-10.016q0-0.32 0.256-0.576t0.576-0.256 0.576 0.256 0.224 0.576v10.016zM11.68 23.52q0 0.32-0.256 0.544t-0.576 0.256-0.576-0.256-0.256-0.544v-10.016q0-0.32 0.256-0.576t0.576-0.256 0.576 0.256 0.256 0.576v10.016zM15.008 23.52q0 0.32-0.256 0.544t-0.576 0.256-0.608-0.256-0.256-0.544v-10.016q0-0.32 0.256-0.576t0.608-0.256 0.576 0.256 0.256 0.576v10.016zM22.496 5.984q2.4 0 4.096 1.728t1.728 4.128v8.32q0 2.4-1.728 4.096t-4.096 1.728h-0.8q0 2.080-1.472 3.552t-3.552 1.472h-11.68q-2.080 0-3.52-1.472t-1.472-3.552v-21.664q0-1.376 0.96-2.336t2.368-0.992h15.008q1.376 0 2.368 0.992t0.992 2.336v1.664h0.8zM3.328 4.32v2.496q0 1.024 0.736 1.76t1.792 0.736q1.44 0 2.144-1.28l0.288-0.512 0.608 0.096q0.544 0.096 1.088-0.192t0.736-0.864l0.192-0.576h7.424v-1.664h-15.008zM18.336 25.984v-18.304h-6.304q-0.992 1.632-2.88 1.632-1.28 1.664-3.296 1.664-1.44 0-2.528-0.832v15.84q0 0.672 0.48 1.184t1.184 0.512h11.68q0.704 0 1.184-0.512t0.48-1.184zM24.992 20.16v-8.32q0-1.056-0.736-1.792t-1.76-0.736h-2.496v13.344h2.496q1.024 0 1.76-0.736t0.736-1.76z" fill="#444444"></path>
</svg>
